<mxfile host="app.diagrams.net" modified="2022-09-23T03:19:58.804Z" agent="5.0 (Macintosh; Intel Mac OS X 10_15_7) AppleWebKit/537.36 (KHTML, like Gecko) Chrome/105.0.0.0 Safari/537.36" etag="RGgVkKjgqRUK5XUQTCRx" version="20.3.3" type="github">
  <diagram id="d6WIqge2yQM2MYEUYzX_" name="Page-1">
    <mxGraphModel dx="776" dy="516" grid="1" gridSize="10" guides="1" tooltips="1" connect="1" arrows="1" fold="1" page="1" pageScale="1" pageWidth="850" pageHeight="1100" math="0" shadow="0">
      <root>
        <mxCell id="0" />
        <mxCell id="1" parent="0" />
        <mxCell id="BZFy8TPtF4Y1V40euOKR-3" value="" style="shape=image;verticalLabelPosition=bottom;labelBackgroundColor=default;verticalAlign=top;aspect=fixed;imageAspect=0;image=https://user-images.githubusercontent.com/113817801/191666887-9b499076-fc63-403b-8ef8-03fb5a0ae309.png;" vertex="1" parent="1">
          <mxGeometry x="90" y="100" width="606.67" height="350" as="geometry" />
        </mxCell>
        <mxCell id="BZFy8TPtF4Y1V40euOKR-10" value="" style="whiteSpace=wrap;html=1;aspect=fixed;strokeColor=none;fontColor=#FF0000;" vertex="1" parent="1">
          <mxGeometry x="260" y="130" width="240" height="240" as="geometry" />
        </mxCell>
        <mxCell id="BZFy8TPtF4Y1V40euOKR-11" value="" style="image;html=1;image=img/lib/clip_art/computers/Database_128x128.png;strokeColor=#FF0000;fontColor=#FF0000;" vertex="1" parent="1">
          <mxGeometry x="270" y="330" width="60" height="40" as="geometry" />
        </mxCell>
        <mxCell id="BZFy8TPtF4Y1V40euOKR-19" value="&lt;font color=&quot;#009900&quot;&gt;&lt;br&gt;&lt;br&gt;&lt;/font&gt;" style="whiteSpace=wrap;html=1;aspect=fixed;strokeColor=#009900;fontColor=#FF0000;align=right;" vertex="1" parent="1">
          <mxGeometry x="285" y="130" width="190" height="190" as="geometry" />
        </mxCell>
        <mxCell id="BZFy8TPtF4Y1V40euOKR-20" value="&lt;span style=&quot;white-space: pre;&quot;&gt;&lt;span style=&quot;white-space: pre;&quot;&gt;	&lt;/span&gt;	&lt;/span&gt;&lt;span style=&quot;white-space: pre;&quot;&gt;	&lt;/span&gt;&lt;span style=&quot;white-space: pre;&quot;&gt;	&lt;/span&gt;Python 3.9.13" style="text;html=1;resizable=0;autosize=1;align=center;verticalAlign=middle;points=[];fillColor=none;strokeColor=none;rounded=0;fontColor=#009900;" vertex="1" parent="1">
          <mxGeometry x="280" y="295" width="200" height="30" as="geometry" />
        </mxCell>
      </root>
    </mxGraphModel>
  </diagram>
</mxfile>
